<svg width="362" height="162" viewBox="0 0 362 162" fill="none" xmlns="http://www.w3.org/2000/svg">
<path d="M57.28 88.64C55.0933 88.64 53.5733 88.2133 52.72 87.36C51.8667 86.5067 51.44 85.4667 51.44 84.24C51.44 82.6933 51.84 81.04 52.64 79.28C53.4933 77.52 54.2933 76.0267 55.04 74.8C55.8933 73.52 57.04 72.1867 58.48 70.8C59.92 69.4133 61.4933 68.24 63.2 67.28C64.9067 66.32 66.56 65.84 68.16 65.84C69.5467 65.84 70.5067 66.1867 71.04 66.88C71.5733 67.52 71.84 68.2933 71.84 69.2C71.84 70.8533 71.3333 72.2133 70.32 73.28C69.36 74.3467 68.16 75.2267 66.72 75.92C65.28 76.56 63.8933 77.0933 62.56 77.52C61.76 77.7333 60.8267 77.9467 59.76 78.16C58.6933 78.3733 57.68 78.48 56.72 78.48C56.3467 79.44 56.0533 80.3733 55.84 81.28C55.6267 82.1867 55.52 83.0133 55.52 83.76C55.52 84.6667 55.7333 85.4133 56.16 86C56.64 86.5867 57.4133 86.88 58.48 86.88C58.9067 86.88 59.4133 86.8267 60 86.72C60.5867 86.6133 61.2267 86.4533 61.92 86.24C63.52 85.7067 65.0933 84.8533 66.64 83.68C68.1867 82.5067 69.6 81.2533 70.88 79.92C72.2133 78.5333 73.2267 77.3867 73.92 76.48C74.08 76.64 74.16 76.8267 74.16 77.04C74.16 77.3067 73.9733 77.7333 73.6 78.32C72.5333 79.8133 71.1467 81.36 69.44 82.96C67.7333 84.56 65.84 85.92 63.76 87.04C61.68 88.1067 59.52 88.64 57.28 88.64ZM57.36 76.88C58.0533 76.9333 58.8267 76.9333 59.68 76.88C60.5867 76.7733 61.4667 76.5867 62.32 76.32C64.5067 75.68 66.08 74.6667 67.04 73.28C68.0533 71.84 68.56 70.56 68.56 69.44C68.56 68.8 68.4267 68.2667 68.16 67.84C67.8933 67.4133 67.4667 67.2 66.88 67.2C65.3333 67.2 63.9467 67.7867 62.72 68.96C61.4933 70.08 60.4267 71.3867 59.52 72.88C58.6133 74.3733 57.8933 75.7067 57.36 76.88ZM73.1219 89.12C72.9085 89.12 72.9085 88.9067 73.1219 88.48C73.3885 88 73.6285 87.4667 73.8419 86.88C74.1085 86.2933 74.3752 85.6533 74.6419 84.96C75.1752 83.68 75.7619 82.24 76.4019 80.64C77.0419 79.04 77.6552 77.4933 78.2419 76C78.8285 74.4533 79.3352 73.1467 79.7619 72.08C80.2419 70.96 80.5619 70.24 80.7219 69.92C79.9752 70.72 79.0685 71.7333 78.0019 72.96C76.9885 74.1333 76.0285 75.28 75.1219 76.4C74.2152 77.52 73.5219 78.4 73.0419 79.04C72.8819 79.2533 72.7485 79.36 72.6419 79.36C72.5352 79.36 72.4819 79.2267 72.4819 78.96C72.4819 78.5333 72.6152 78.1333 72.8819 77.76C73.8952 76.48 75.0152 75.04 76.2419 73.44C77.5219 71.84 78.6685 70.3733 79.6819 69.04C80.6952 67.6533 81.3352 66.7467 81.6019 66.32C82.1885 66.2133 83.0419 66.0533 84.1619 65.84C85.3352 65.6267 86.1352 65.3333 86.5619 64.96C86.7219 64.8 86.8819 64.72 87.0419 64.72C87.1485 64.72 87.2019 64.8267 87.2019 65.04C87.2552 65.2 87.2019 65.3867 87.0419 65.6C86.7219 65.92 86.2419 66.6133 85.6019 67.68C85.0152 68.7467 84.3485 69.9733 83.6019 71.36C82.8552 72.7467 82.1352 74.08 81.4419 75.36C81.9752 74.56 82.6685 73.6267 83.5219 72.56C84.4285 71.44 85.4152 70.3733 86.4819 69.36C87.5485 68.2933 88.6152 67.4133 89.6819 66.72C90.8019 66.0267 91.8419 65.68 92.8019 65.68C93.4952 65.68 94.0819 65.84 94.5619 66.16C95.0419 66.4267 95.4152 66.9333 95.6819 67.68C95.8419 68.0533 95.9219 68.48 95.9219 68.96C95.9219 69.8667 95.6819 70.7467 95.2019 71.6C94.7752 72.4 94.4552 73.0133 94.2419 73.44C94.1885 73.6 94.0019 73.76 93.6819 73.92C93.3619 74.0267 93.2285 73.9733 93.2819 73.76C93.3352 73.4933 93.3619 73.2267 93.3619 72.96C93.4152 72.6933 93.4419 72.4 93.4419 72.08C93.4419 71.1733 93.2552 70.3467 92.8819 69.6C92.5619 68.8533 91.9485 68.48 91.0419 68.48C90.1885 68.48 89.1485 69.0133 87.9219 70.08C86.6952 71.1467 85.4685 72.3733 84.2419 73.76C82.6952 75.5733 81.4685 77.3067 80.5619 78.96C79.6552 80.56 78.9085 82.1333 78.3219 83.68C78.0019 84.5333 77.6819 85.3867 77.3619 86.24C77.0419 87.04 76.8019 87.68 76.6419 88.16C75.9485 88.2133 75.2552 88.3733 74.5619 88.64C73.8685 88.96 73.3885 89.12 73.1219 89.12ZM94.9188 89.2C94.7054 89.2 94.7054 88.96 94.9188 88.48C95.1854 88 95.4254 87.4667 95.6388 86.88C95.9054 86.2933 96.1721 85.6533 96.4388 84.96C96.9721 83.68 97.5588 82.24 98.1988 80.64C98.8388 79.04 99.4521 77.4933 100.039 76C100.625 74.4533 101.132 73.1467 101.559 72.08C102.039 70.96 102.359 70.24 102.519 69.92C101.772 70.72 100.865 71.7333 99.7988 72.96C98.7854 74.1333 97.8254 75.28 96.9188 76.4C96.0121 77.52 95.3188 78.4 94.8388 79.04C94.6788 79.2533 94.5454 79.36 94.4388 79.36C94.3321 79.36 94.2788 79.2267 94.2788 78.96C94.2788 78.5333 94.4121 78.1333 94.6788 77.76C95.6921 76.48 96.8121 75.04 98.0388 73.44C99.3188 71.84 100.465 70.3733 101.479 69.04C102.492 67.6533 103.132 66.7467 103.399 66.32C103.985 66.2133 104.839 66.0533 105.959 65.84C107.132 65.6267 107.932 65.3333 108.359 64.96C108.519 64.8 108.679 64.72 108.839 64.72C108.945 64.72 108.999 64.8267 108.999 65.04C109.052 65.2 108.999 65.3867 108.839 65.6C108.519 65.9733 107.959 66.8533 107.159 68.24C106.412 69.5733 105.585 71.0667 104.679 72.72C103.825 74.3733 103.025 75.8667 102.279 77.2C102.919 76.3467 103.612 75.52 104.359 74.72C105.105 73.92 105.825 73.1467 106.519 72.4C107.159 71.76 108.039 70.96 109.159 70C110.279 69.04 111.452 68.16 112.679 67.36C113.905 66.56 114.972 66.1067 115.879 66C116.092 65.9467 116.279 65.92 116.439 65.92C116.652 65.92 116.812 65.92 116.919 65.92C118.092 65.92 118.679 66.3467 118.679 67.2C118.679 67.84 118.332 68.6933 117.639 69.76C117.265 70.3467 116.679 71.3333 115.879 72.72C115.132 74.0533 114.359 75.52 113.559 77.12C112.812 78.6667 112.145 80.1333 111.559 81.52C111.025 82.8533 110.759 83.84 110.759 84.48C110.759 85.2267 111.132 85.6 111.879 85.6C112.785 85.6 113.772 85.1467 114.839 84.24C115.959 83.3333 117.159 82.1867 118.439 80.8C119.719 79.36 120.999 77.84 122.279 76.24C122.385 76.3467 122.439 76.5333 122.439 76.8C122.439 77.1733 122.305 77.5467 122.039 77.92C121.825 78.24 121.612 78.5333 121.399 78.8C120.865 79.4933 120.145 80.3733 119.239 81.44C118.385 82.4533 117.505 83.4667 116.599 84.48C115.692 85.44 114.865 86.2133 114.119 86.8C113.585 87.1733 112.892 87.5733 112.039 88C111.185 88.4267 110.332 88.64 109.479 88.64C108.519 88.64 107.852 88.4 107.479 87.92C107.105 87.3867 106.919 86.7467 106.919 86C106.919 85.1467 107.079 84.24 107.399 83.28C107.719 82.32 108.065 81.4133 108.439 80.56C108.865 79.6533 109.185 78.9867 109.399 78.56C110.359 76.6933 111.239 74.9333 112.039 73.28C112.839 71.6267 113.399 70.4533 113.719 69.76C113.879 69.44 113.959 69.1733 113.959 68.96C113.959 68.5867 113.665 68.56 113.079 68.88C112.492 69.2 111.772 69.68 110.919 70.32C110.119 70.96 109.372 71.6 108.679 72.24C107.985 72.8267 107.532 73.2267 107.319 73.44C105.345 75.52 103.612 77.84 102.119 80.4C100.679 82.9067 99.4521 85.4933 98.4388 88.16C97.7454 88.2133 97.0521 88.4 96.3588 88.72C95.6654 89.04 95.1854 89.2 94.9188 89.2ZM131.725 88.24C131.192 88.24 130.738 88.1333 130.365 87.92C129.992 87.7067 129.805 87.3067 129.805 86.72C129.805 85.9733 129.992 85.12 130.365 84.16C130.738 83.2 131.165 82.2667 131.645 81.36C132.125 80.4 132.552 79.6267 132.925 79.04C131.058 81.0133 129.112 82.88 127.085 84.64C126.072 85.4933 124.952 86.2933 123.725 87.04C122.498 87.7867 121.192 88.16 119.805 88.16C119.272 88.16 118.898 88 118.685 87.68C118.472 87.3067 118.365 86.88 118.365 86.4C118.365 86.1333 118.392 85.9467 118.445 85.84C118.712 83.76 119.378 81.6 120.445 79.36C121.512 77.12 122.818 75.0133 124.365 73.04C125.912 71.0667 127.485 69.4667 129.085 68.24C130.898 66.8533 132.898 66.16 135.085 66.16H144.285C144.552 66.16 144.685 66.2667 144.685 66.48C144.685 66.9067 144.445 67.12 143.965 67.12C143.432 67.12 142.898 67.4667 142.365 68.16C141.832 68.8 141.432 69.3333 141.165 69.76C140.792 70.3467 140.205 71.3333 139.405 72.72C138.605 74.1067 137.778 75.6267 136.925 77.28C136.125 78.88 135.432 80.3733 134.845 81.76C134.258 83.1467 133.965 84.16 133.965 84.8C133.965 85.5467 134.338 85.92 135.085 85.92C135.885 85.92 136.792 85.5467 137.805 84.8C138.818 84.0533 139.832 83.1467 140.845 82.08C141.912 80.96 142.872 79.8667 143.725 78.8C144.632 77.68 145.352 76.8 145.885 76.16C146.205 76.48 146.178 76.9333 145.805 77.52C145.485 78.0533 145.192 78.48 144.925 78.8C143.858 80.1867 142.632 81.6267 141.245 83.12C139.858 84.56 138.338 85.7867 136.685 86.8C135.085 87.76 133.432 88.24 131.725 88.24ZM123.085 85.44C123.725 85.44 124.605 84.9867 125.725 84.08C126.898 83.12 128.152 81.9467 129.485 80.56C130.818 79.12 132.072 77.6267 133.245 76.08C134.418 74.48 135.378 73.04 136.125 71.76C136.925 70.4267 137.325 69.4133 137.325 68.72C137.325 68.1333 137.138 67.7333 136.765 67.52C136.445 67.3067 136.018 67.2 135.485 67.2C134.632 67.2 133.698 67.52 132.685 68.16C131.725 68.7467 130.952 69.3333 130.365 69.92C129.725 70.5067 128.952 71.44 128.045 72.72C127.192 73.9467 126.338 75.3067 125.485 76.8C124.632 78.2933 123.912 79.7333 123.325 81.12C122.738 82.5067 122.445 83.6267 122.445 84.48C122.445 85.12 122.658 85.44 123.085 85.44ZM144.841 89.2C144.627 89.2 144.627 88.96 144.841 88.48C145.107 88 145.347 87.4667 145.561 86.88C145.827 86.2933 146.094 85.6533 146.361 84.96C146.894 83.68 147.481 82.24 148.121 80.64C148.761 79.04 149.374 77.4933 149.961 76C150.547 74.4533 151.054 73.1467 151.481 72.08C151.961 70.96 152.281 70.24 152.441 69.92C151.694 70.72 150.787 71.7333 149.721 72.96C148.707 74.1333 147.747 75.28 146.841 76.4C145.934 77.52 145.241 78.4 144.761 79.04C144.601 79.2533 144.467 79.36 144.361 79.36C144.254 79.36 144.201 79.2267 144.201 78.96C144.201 78.5333 144.334 78.1333 144.601 77.76C145.614 76.48 146.734 75.04 147.961 73.44C149.241 71.84 150.387 70.3733 151.401 69.04C152.414 67.6533 153.054 66.7467 153.321 66.32C153.907 66.2133 154.761 66.0533 155.881 65.84C157.054 65.6267 157.854 65.3333 158.281 64.96C158.441 64.8 158.601 64.72 158.761 64.72C158.867 64.72 158.921 64.8267 158.921 65.04C158.974 65.2 158.921 65.3867 158.761 65.6C158.441 65.9733 157.881 66.8533 157.081 68.24C156.334 69.5733 155.507 71.0667 154.601 72.72C153.747 74.3733 152.947 75.8667 152.201 77.2C152.841 76.3467 153.534 75.52 154.281 74.72C155.027 73.92 155.747 73.1467 156.441 72.4C157.081 71.76 157.961 70.96 159.081 70C160.201 69.04 161.374 68.16 162.601 67.36C163.827 66.56 164.894 66.1067 165.801 66C166.014 65.9467 166.201 65.92 166.361 65.92C166.574 65.92 166.734 65.92 166.841 65.92C168.014 65.92 168.601 66.3467 168.601 67.2C168.601 67.84 168.254 68.6933 167.561 69.76C167.187 70.3467 166.601 71.3333 165.801 72.72C165.054 74.0533 164.281 75.52 163.481 77.12C162.734 78.6667 162.067 80.1333 161.481 81.52C160.947 82.8533 160.681 83.84 160.681 84.48C160.681 85.2267 161.054 85.6 161.801 85.6C162.707 85.6 163.694 85.1467 164.761 84.24C165.881 83.3333 167.081 82.1867 168.361 80.8C169.641 79.36 170.921 77.84 172.201 76.24C172.307 76.3467 172.361 76.5333 172.361 76.8C172.361 77.1733 172.227 77.5467 171.961 77.92C171.747 78.24 171.534 78.5333 171.321 78.8C170.787 79.4933 170.067 80.3733 169.161 81.44C168.307 82.4533 167.427 83.4667 166.521 84.48C165.614 85.44 164.787 86.2133 164.041 86.8C163.507 87.1733 162.814 87.5733 161.961 88C161.107 88.4267 160.254 88.64 159.401 88.64C158.441 88.64 157.774 88.4 157.401 87.92C157.027 87.3867 156.841 86.7467 156.841 86C156.841 85.1467 157.001 84.24 157.321 83.28C157.641 82.32 157.987 81.4133 158.361 80.56C158.787 79.6533 159.107 78.9867 159.321 78.56C160.281 76.6933 161.161 74.9333 161.961 73.28C162.761 71.6267 163.321 70.4533 163.641 69.76C163.801 69.44 163.881 69.1733 163.881 68.96C163.881 68.5867 163.587 68.56 163.001 68.88C162.414 69.2 161.694 69.68 160.841 70.32C160.041 70.96 159.294 71.6 158.601 72.24C157.907 72.8267 157.454 73.2267 157.241 73.44C155.267 75.52 153.534 77.84 152.041 80.4C150.601 82.9067 149.374 85.4933 148.361 88.16C147.667 88.2133 146.974 88.4 146.281 88.72C145.587 89.04 145.107 89.2 144.841 89.2ZM181.647 88.24C181.114 88.24 180.66 88.1333 180.287 87.92C179.914 87.7067 179.727 87.3067 179.727 86.72C179.727 85.9733 179.914 85.12 180.287 84.16C180.66 83.2 181.087 82.2667 181.567 81.36C182.047 80.4 182.474 79.6267 182.847 79.04C180.98 81.0133 179.034 82.88 177.007 84.64C175.994 85.4933 174.874 86.2933 173.647 87.04C172.42 87.7867 171.114 88.16 169.727 88.16C169.194 88.16 168.82 88 168.607 87.68C168.394 87.3067 168.287 86.88 168.287 86.4C168.287 86.1333 168.314 85.9467 168.367 85.84C168.634 83.76 169.3 81.6 170.367 79.36C171.434 77.12 172.74 75.0133 174.287 73.04C175.834 71.0667 177.407 69.4667 179.007 68.24C180.234 67.3333 181.407 66.7733 182.527 66.56C183.647 66.2933 184.874 66.16 186.207 66.16H188.847C189.7 64.72 190.58 63.12 191.487 61.36C192.447 59.5467 193.38 57.76 194.287 56C195.247 54.24 196.127 52.6933 196.927 51.36C199.114 47.6267 201.514 44.64 204.127 42.4C206.794 40.16 209.754 39.04 213.007 39.04C213.7 39.04 214.34 39.2533 214.927 39.68C215.514 40.0533 215.78 40.64 215.727 41.44L215.567 44.32C215.567 44.3733 215.514 44.4533 215.407 44.56C215.3 44.6133 215.22 44.64 215.167 44.64C215.114 44.64 215.034 44.5867 214.927 44.48C214.767 43.52 214.287 42.8 213.487 42.32C212.687 41.7867 211.7 41.52 210.527 41.52C210.154 41.52 209.727 41.5467 209.247 41.6C208.82 41.6533 208.394 41.76 207.967 41.92C206.474 42.4533 205.06 43.5467 203.727 45.2C202.394 46.8 200.954 48.9333 199.407 51.6C198.874 52.6133 198.18 53.9467 197.327 55.6C196.474 57.2 195.567 58.9333 194.607 60.8C193.7 62.6667 192.82 64.48 191.967 66.24C191.167 68 190.474 69.4933 189.887 70.72C189.62 71.36 189.167 72.3467 188.527 73.68C187.887 74.96 187.194 76.3733 186.447 77.92C185.754 79.4133 185.14 80.8 184.607 82.08C184.127 83.36 183.887 84.2667 183.887 84.8C183.887 85.5467 184.207 85.92 184.847 85.92C185.487 85.92 186.34 85.5467 187.407 84.8C188.474 84 189.567 83.04 190.687 81.92C191.86 80.7467 192.9 79.6267 193.807 78.56C194.767 77.4933 195.434 76.6933 195.807 76.16C195.967 76.32 196.047 76.5067 196.047 76.72C196.047 77.0933 195.887 77.4667 195.567 77.84C195.3 78.2133 195.06 78.5333 194.847 78.8C193.887 80.08 192.687 81.4667 191.247 82.96C189.86 84.4 188.34 85.6533 186.687 86.72C185.034 87.7333 183.354 88.24 181.647 88.24ZM173.007 85.44C173.647 85.44 174.527 84.9867 175.647 84.08C176.82 83.12 178.074 81.9467 179.407 80.56C180.74 79.12 181.994 77.6267 183.167 76.08C184.34 74.48 185.3 73.04 186.047 71.76C186.847 70.4267 187.247 69.4133 187.247 68.72C187.247 68.1333 187.06 67.7333 186.687 67.52C186.367 67.3067 185.94 67.2 185.407 67.2C184.554 67.2 183.62 67.52 182.607 68.16C181.647 68.7467 180.874 69.3333 180.287 69.92C179.647 70.5067 178.874 71.44 177.967 72.72C177.114 73.9467 176.26 75.3067 175.407 76.8C174.554 78.2933 173.834 79.7333 173.247 81.12C172.66 82.5067 172.367 83.6267 172.367 84.48C172.367 85.12 172.58 85.44 173.007 85.44ZM205.163 88.24C204.629 88.24 204.176 88.1333 203.803 87.92C203.429 87.7067 203.243 87.3067 203.243 86.72C203.243 85.9733 203.429 85.12 203.803 84.16C204.176 83.2 204.603 82.2667 205.083 81.36C205.563 80.4 205.989 79.6267 206.363 79.04C204.496 81.0133 202.549 82.88 200.523 84.64C199.509 85.4933 198.389 86.2933 197.163 87.04C195.936 87.7867 194.629 88.16 193.243 88.16C192.709 88.16 192.336 88 192.123 87.68C191.909 87.3067 191.803 86.88 191.803 86.4C191.803 86.1333 191.829 85.9467 191.883 85.84C192.149 83.76 192.816 81.6 193.883 79.36C194.949 77.12 196.256 75.0133 197.803 73.04C199.349 71.0667 200.923 69.4667 202.523 68.24C204.336 66.8533 206.336 66.16 208.523 66.16H217.723C217.989 66.16 218.123 66.2667 218.123 66.48C218.123 66.9067 217.883 67.12 217.403 67.12C216.869 67.12 216.336 67.4667 215.803 68.16C215.269 68.8 214.869 69.3333 214.603 69.76C214.229 70.3467 213.643 71.3333 212.843 72.72C212.043 74.1067 211.216 75.6267 210.363 77.28C209.563 78.88 208.869 80.3733 208.283 81.76C207.696 83.1467 207.403 84.16 207.403 84.8C207.403 85.5467 207.776 85.92 208.523 85.92C209.323 85.92 210.229 85.5467 211.243 84.8C212.256 84.0533 213.269 83.1467 214.283 82.08C215.349 80.96 216.309 79.8667 217.163 78.8C218.069 77.68 218.789 76.8 219.323 76.16C219.643 76.48 219.616 76.9333 219.243 77.52C218.923 78.0533 218.629 78.48 218.363 78.8C217.296 80.1867 216.069 81.6267 214.683 83.12C213.296 84.56 211.776 85.7867 210.123 86.8C208.523 87.76 206.869 88.24 205.163 88.24ZM196.523 85.44C197.163 85.44 198.043 84.9867 199.163 84.08C200.336 83.12 201.589 81.9467 202.923 80.56C204.256 79.12 205.509 77.6267 206.683 76.08C207.856 74.48 208.816 73.04 209.563 71.76C210.363 70.4267 210.763 69.4133 210.763 68.72C210.763 68.1333 210.576 67.7333 210.203 67.52C209.883 67.3067 209.456 67.2 208.923 67.2C208.069 67.2 207.136 67.52 206.123 68.16C205.163 68.7467 204.389 69.3333 203.803 69.92C203.163 70.5067 202.389 71.44 201.483 72.72C200.629 73.9467 199.776 75.3067 198.923 76.8C198.069 78.2933 197.349 79.7333 196.763 81.12C196.176 82.5067 195.883 83.6267 195.883 84.48C195.883 85.12 196.096 85.44 196.523 85.44Z" fill="#F3490E"/>
<path d="M15.51 92.18C13.2367 92.18 11.0733 91.52 9.02 90.2C6.96667 88.9533 5.42667 87.01 4.4 84.37C4.03333 83.4167 3.77667 82.39 3.63 81.29C3.55667 80.19 3.52 79.1267 3.52 78.1V76.67C3.52 76.1567 3.55667 75.68 3.63 75.24C3.77667 74.8 4.07 74.58 4.51 74.58C4.65667 74.58 4.73 74.6533 4.73 74.8C4.73 75.24 4.69333 75.68 4.62 76.12C4.62 76.56 4.62 77 4.62 77.44C4.62 80.8867 5.46333 83.5267 7.15 85.36C8.91 87.12 11.0733 88 13.64 88C16.2067 88 18.7 87.2667 21.12 85.8C23.54 84.26 25.7767 82.3533 27.83 80.08C29.0033 78.8333 30.3233 76.9633 31.79 74.47C33.33 71.9033 34.9067 69.0433 36.52 65.89C38.2067 62.6633 39.8933 59.3633 41.58 55.99C43.2667 52.5433 44.88 49.2433 46.42 46.09C47.96 42.8633 49.3533 40.04 50.6 37.62C51.7733 35.3467 53.35 33.55 55.33 32.23C57.31 30.91 58.9967 29.9933 60.39 29.48C59.8767 29.48 58.7767 29.5167 57.09 29.59C55.4767 29.6633 53.7533 29.7367 51.92 29.81C50.0867 29.8833 48.62 29.9567 47.52 30.03C44.7333 30.1767 41.91 30.5067 39.05 31.02C36.19 31.5333 33.66 32.23 31.46 33.11C29.26 33.99 27.6833 35.1267 26.73 36.52C26.07 37.4733 25.74 38.5733 25.74 39.82C25.74 42.3133 26.84 44.11 29.04 45.21C29.1867 45.3567 29.26 45.43 29.26 45.43C29.26 45.65 29.0767 45.87 28.71 46.09C28.3433 46.2367 27.9767 46.2733 27.61 46.2C27.0233 45.8333 26.29 45.2467 25.41 44.44C24.6033 43.56 23.8333 42.6433 23.1 41.69C22.44 40.7367 22 39.93 21.78 39.27C21.4133 38.17 21.23 37.29 21.23 36.63C21.23 34.87 21.89 33.44 23.21 32.34C24.53 31.1667 26.2533 30.2867 28.38 29.7C30.5067 29.04 32.78 28.6 35.2 28.38C37.62 28.0867 39.9667 27.9033 42.24 27.83C44.5133 27.7567 46.4567 27.72 48.07 27.72C51.81 27.72 55.1467 27.72 58.08 27.72C61.0867 27.6467 63.8367 27.61 66.33 27.61C68.8967 27.61 71.3533 27.6467 73.7 27.72C76.12 27.7933 78.65 27.9033 81.29 28.05C83.1967 28.1233 84.48 28.49 85.14 29.15C85.8733 29.81 86.24 30.6167 86.24 31.57C86.24 32.8167 85.8367 34.1733 85.03 35.64C84.2233 37.1067 83.49 38.4633 82.83 39.71C82.5367 40.2967 82.06 40.7367 81.4 41.03C80.74 41.25 80.4833 41.03 80.63 40.37C80.7767 39.71 80.9233 39.0133 81.07 38.28C81.2167 37.4733 81.29 36.7033 81.29 35.97C81.29 34.65 81.0333 33.4767 80.52 32.45C80.0067 31.35 79.1267 30.58 77.88 30.14C77.1467 29.8467 76.2667 29.6633 75.24 29.59C74.2133 29.4433 73.1133 29.37 71.94 29.37C69.74 29.37 67.54 29.59 65.34 30.03C63.14 30.47 61.4167 31.1667 60.17 32.12C58.63 33.2933 57.0533 35.2 55.44 37.84C53.9 40.48 52.4333 43.3033 51.04 46.31C49.6467 49.3167 48.4 51.9567 47.3 54.23C47.2267 54.3767 47.19 54.5967 47.19 54.89C47.19 55.2567 47.52 55.44 48.18 55.44C49.2067 55.44 50.6367 55.44 52.47 55.44C54.3767 55.44 56.3567 55.4767 58.41 55.55C60.4633 55.55 62.2233 55.55 63.69 55.55C65.3033 55.55 66.5867 55.66 67.54 55.88C68.4933 56.0267 68.97 56.5033 68.97 57.31C68.97 57.6033 68.7867 58.19 68.42 59.07C67.9067 60.2433 67.32 61.27 66.66 62.15C66.0733 62.9567 65.5967 63.8 65.23 64.68C65.1567 64.9733 64.8267 65.23 64.24 65.45C63.6533 65.67 63.4333 65.6333 63.58 65.34C63.8733 64.68 64.1667 63.8733 64.46 62.92C64.8267 61.8933 65.01 61.0133 65.01 60.28C65.01 59.1067 64.4967 58.52 63.47 58.52H46.31C45.65 58.52 45.1367 58.8133 44.77 59.4C42.6433 63.6533 40.3333 68.2 37.84 73.04C35.42 77.88 32.5967 82.0233 29.37 85.47C27.5367 87.45 25.41 89.0633 22.99 90.31C20.57 91.5567 18.0767 92.18 15.51 92.18Z" fill="#F3490E"/>
<path d="M247.08 107.64C245.107 107.64 243.72 107.267 242.92 106.52C242.12 105.773 241.72 104.813 241.72 103.64C241.72 102.093 242.227 100.387 243.24 98.52C244.253 96.6 245.213 95 246.12 93.72C247.027 92.4933 248.04 91.3467 249.16 90.28C250.333 89.16 251.587 88.2 252.92 87.4C253.773 86.8667 254.92 86.3067 256.36 85.72C257.853 85.08 259.107 84.76 260.12 84.76C261.347 84.76 262.2 85.0533 262.68 85.64C263.16 86.1733 263.4 86.84 263.4 87.64C263.4 88.28 263.293 88.9467 263.08 89.64C262.867 90.28 262.627 90.8933 262.36 91.48C262.2 91.8 261.96 92.04 261.64 92.2C261.32 92.3067 261.16 92.2533 261.16 92.04C261.16 91.7733 261.187 91.5333 261.24 91.32C261.293 91.1067 261.32 90.8667 261.32 90.6C261.32 89.5867 261.08 88.6 260.6 87.64C260.173 86.6267 259.507 86.12 258.6 86.12C257.64 86.12 256.6 86.4667 255.48 87.16C254.36 87.8 253.587 88.36 253.16 88.84C251.773 90.28 250.413 92.0667 249.08 94.2C247.8 96.3333 246.867 98.36 246.28 100.28C245.907 101.4 245.72 102.36 245.72 103.16C245.72 104.067 245.96 104.707 246.44 105.08C246.92 105.453 247.507 105.64 248.2 105.64C248.733 105.64 249.293 105.56 249.88 105.4C250.52 105.24 251.187 105.053 251.88 104.84C253.48 104.307 255.08 103.48 256.68 102.36C258.333 101.187 259.827 99.96 261.16 98.68C262.493 97.3467 263.507 96.2 264.2 95.24C264.307 95.3467 264.36 95.5067 264.36 95.72C264.36 95.9867 264.253 96.3067 264.04 96.68C263.827 97 263.667 97.2667 263.56 97.48C262.44 98.9733 260.973 100.52 259.16 102.12C257.347 103.667 255.373 104.973 253.24 106.04C251.16 107.107 249.107 107.64 247.08 107.64ZM273.663 107.24C273.129 107.24 272.676 107.133 272.303 106.92C271.929 106.707 271.743 106.307 271.743 105.72C271.743 104.973 271.929 104.12 272.303 103.16C272.676 102.2 273.103 101.267 273.583 100.36C274.063 99.4 274.489 98.6267 274.863 98.04C272.996 100.013 271.049 101.88 269.023 103.64C268.009 104.493 266.889 105.293 265.663 106.04C264.436 106.787 263.129 107.16 261.743 107.16C261.209 107.16 260.836 107 260.623 106.68C260.409 106.307 260.303 105.88 260.303 105.4C260.303 105.133 260.329 104.947 260.383 104.84C260.649 102.76 261.316 100.6 262.383 98.36C263.449 96.12 264.756 94.0133 266.303 92.04C267.849 90.0667 269.423 88.4667 271.023 87.24C272.836 85.8533 274.836 85.16 277.023 85.16H286.223C286.489 85.16 286.623 85.2667 286.623 85.48C286.623 85.9067 286.383 86.12 285.903 86.12C285.369 86.12 284.836 86.4667 284.303 87.16C283.769 87.8 283.369 88.3333 283.103 88.76C282.729 89.3467 282.143 90.3333 281.343 91.72C280.543 93.1067 279.716 94.6267 278.863 96.28C278.063 97.88 277.369 99.3733 276.783 100.76C276.196 102.147 275.903 103.16 275.903 103.8C275.903 104.547 276.276 104.92 277.023 104.92C277.823 104.92 278.729 104.547 279.743 103.8C280.756 103.053 281.769 102.147 282.783 101.08C283.849 99.96 284.809 98.8667 285.663 97.8C286.569 96.68 287.289 95.8 287.823 95.16C288.143 95.48 288.116 95.9333 287.743 96.52C287.423 97.0533 287.129 97.48 286.863 97.8C285.796 99.1867 284.569 100.627 283.183 102.12C281.796 103.56 280.276 104.787 278.623 105.8C277.023 106.76 275.369 107.24 273.663 107.24ZM265.023 104.44C265.663 104.44 266.543 103.987 267.663 103.08C268.836 102.12 270.089 100.947 271.423 99.56C272.756 98.12 274.009 96.6267 275.183 95.08C276.356 93.48 277.316 92.04 278.063 90.76C278.863 89.4267 279.263 88.4133 279.263 87.72C279.263 87.1333 279.076 86.7333 278.703 86.52C278.383 86.3067 277.956 86.2 277.423 86.2C276.569 86.2 275.636 86.52 274.623 87.16C273.663 87.7467 272.889 88.3333 272.303 88.92C271.663 89.5067 270.889 90.44 269.983 91.72C269.129 92.9467 268.276 94.3067 267.423 95.8C266.569 97.2933 265.849 98.7333 265.263 100.12C264.676 101.507 264.383 102.627 264.383 103.48C264.383 104.12 264.596 104.44 265.023 104.44ZM290.778 107.24C290.245 107.24 289.791 107.133 289.418 106.92C289.045 106.707 288.858 106.307 288.858 105.72C288.858 104.973 289.045 104.093 289.418 103.08C289.845 102.067 290.298 101.053 290.778 100.04C291.258 99.0267 291.658 98.2 291.978 97.56C292.618 96.3333 293.231 95.1067 293.818 93.88C294.405 92.6533 294.911 91.6133 295.338 90.76C295.765 89.96 295.978 89.4267 295.978 89.16C295.978 88.7333 295.658 88.7333 295.018 89.16C294.431 89.5867 293.871 90.0133 293.338 90.44C292.165 91.56 290.938 92.8933 289.658 94.44C288.378 95.9333 287.391 97.1333 286.698 98.04C286.538 98.2533 286.405 98.36 286.298 98.36C286.191 98.36 286.138 98.2267 286.138 97.96C286.138 97.5333 286.271 97.1333 286.538 96.76C287.285 95.6933 288.165 94.52 289.178 93.24C290.191 91.96 291.231 90.7333 292.298 89.56C293.311 88.4933 294.351 87.4533 295.418 86.44C296.485 85.4267 297.845 84.92 299.498 84.92C300.618 84.92 301.178 85.3467 301.178 86.2C301.178 86.9467 300.858 87.8 300.218 88.76C299.845 89.3467 299.258 90.3333 298.458 91.72C297.658 93.1067 296.831 94.6267 295.978 96.28C295.178 97.88 294.485 99.3733 293.898 100.76C293.311 102.147 293.018 103.16 293.018 103.8C293.018 104.547 293.391 104.92 294.138 104.92C294.725 104.92 295.445 104.627 296.298 104.04C297.151 103.4 298.031 102.653 298.938 101.8C300.591 100.2 302.085 98.4667 303.418 96.6C304.805 94.68 305.978 92.84 306.938 91.08C307.951 89.32 308.751 87.88 309.338 86.76C309.445 86.5467 309.551 86.3067 309.658 86.04C309.818 85.72 310.058 85.5333 310.378 85.48C310.698 85.4267 311.391 85.4 312.458 85.4C313.525 85.4 314.511 85.1867 315.418 84.76H315.578C315.738 84.76 315.818 84.84 315.818 85C315.818 85.4267 315.471 85.7467 314.778 85.96C314.138 86.1733 313.391 86.8133 312.538 87.88C311.738 88.9467 310.938 90.2533 310.138 91.8C309.338 93.2933 308.618 94.84 307.978 96.44C307.338 98.04 306.858 99.5067 306.538 100.84C306.218 102.173 306.138 103.16 306.298 103.8C306.511 104.547 306.885 104.92 307.418 104.92C308.111 104.92 309.071 104.493 310.298 103.64C311.578 102.787 312.885 101.773 314.218 100.6C315.551 99.3733 316.645 98.2533 317.498 97.24C317.871 96.8133 318.218 96.3867 318.538 95.96C318.858 95.5333 319.071 95.2667 319.178 95.16C319.231 95.2133 319.285 95.32 319.338 95.48C319.391 95.5867 319.418 95.6933 319.418 95.8C319.365 96.1733 319.231 96.5467 319.018 96.92C318.805 97.24 318.565 97.5333 318.298 97.8C317.285 99.1333 316.058 100.547 314.618 102.04C313.231 103.48 311.711 104.707 310.058 105.72C308.458 106.733 306.805 107.24 305.098 107.24C304.565 107.24 303.951 107.107 303.258 106.84C302.618 106.573 302.298 105.987 302.298 105.08C302.298 104.387 302.485 103.453 302.858 102.28C303.231 101.053 303.631 99.8533 304.058 98.68C304.538 97.4533 304.938 96.5467 305.258 95.96C304.565 96.9733 303.711 98.12 302.698 99.4C301.738 100.627 300.751 101.72 299.738 102.68C298.405 103.96 296.965 105.053 295.418 105.96C293.925 106.813 292.378 107.24 290.778 107.24ZM318.184 108.12C317.971 108.12 317.971 107.907 318.184 107.48C318.451 107 318.691 106.467 318.904 105.88C319.171 105.293 319.438 104.653 319.704 103.96C320.238 102.68 320.824 101.24 321.464 99.64C322.104 98.04 322.718 96.4933 323.304 95C323.891 93.4533 324.398 92.1467 324.824 91.08C325.304 89.96 325.624 89.24 325.784 88.92C325.038 89.72 324.131 90.7333 323.064 91.96C322.051 93.1333 321.091 94.28 320.184 95.4C319.278 96.52 318.584 97.4 318.104 98.04C317.944 98.2533 317.811 98.36 317.704 98.36C317.598 98.36 317.544 98.2267 317.544 97.96C317.544 97.5333 317.678 97.1333 317.944 96.76C318.958 95.48 320.078 94.04 321.304 92.44C322.584 90.84 323.731 89.3733 324.744 88.04C325.758 86.6533 326.398 85.7467 326.664 85.32C327.251 85.2133 328.104 85.0533 329.224 84.84C330.398 84.6267 331.198 84.3333 331.624 83.96C331.784 83.8 331.944 83.72 332.104 83.72C332.211 83.72 332.264 83.8267 332.264 84.04C332.318 84.2 332.264 84.3867 332.104 84.6C331.784 84.92 331.304 85.6133 330.664 86.68C330.078 87.7467 329.411 88.9733 328.664 90.36C327.918 91.7467 327.198 93.08 326.504 94.36C327.038 93.56 327.731 92.6267 328.584 91.56C329.491 90.44 330.478 89.3733 331.544 88.36C332.611 87.2933 333.678 86.4133 334.744 85.72C335.864 85.0267 336.904 84.68 337.864 84.68C338.558 84.68 339.144 84.84 339.624 85.16C340.104 85.4267 340.478 85.9333 340.744 86.68C340.904 87.0533 340.984 87.48 340.984 87.96C340.984 88.8667 340.744 89.7467 340.264 90.6C339.838 91.4 339.518 92.0133 339.304 92.44C339.251 92.6 339.064 92.76 338.744 92.92C338.424 93.0267 338.291 92.9733 338.344 92.76C338.398 92.4933 338.424 92.2267 338.424 91.96C338.478 91.6933 338.504 91.4 338.504 91.08C338.504 90.1733 338.318 89.3467 337.944 88.6C337.624 87.8533 337.011 87.48 336.104 87.48C335.251 87.48 334.211 88.0133 332.984 89.08C331.758 90.1467 330.531 91.3733 329.304 92.76C327.758 94.5733 326.531 96.3067 325.624 97.96C324.718 99.56 323.971 101.133 323.384 102.68C323.064 103.533 322.744 104.387 322.424 105.24C322.104 106.04 321.864 106.68 321.704 107.16C321.011 107.213 320.318 107.373 319.624 107.64C318.931 107.96 318.451 108.12 318.184 108.12ZM356.141 76.44C355.395 76.44 354.861 76.2 354.541 75.72C354.328 75.4533 354.221 75.1067 354.221 74.68C354.221 73.8267 354.621 73.1333 355.421 72.6C356.008 72.28 356.541 72.12 357.021 72.12C357.821 72.12 358.381 72.36 358.701 72.84C358.915 73.1067 359.021 73.4533 359.021 73.88C359.021 74.7333 358.595 75.4267 357.741 75.96C357.261 76.28 356.728 76.44 356.141 76.44ZM342.221 107.24C341.688 107.24 341.235 107.133 340.861 106.92C340.541 106.707 340.381 106.307 340.381 105.72C340.381 104.973 340.568 104.093 340.941 103.08C341.368 102.067 341.821 101.053 342.301 100.04C342.835 99.0267 343.235 98.2 343.501 97.56C343.875 96.8133 344.328 95.8533 344.861 94.68C345.448 93.4533 345.981 92.3067 346.461 91.24C346.995 90.12 347.368 89.3467 347.581 88.92C346.835 89.72 345.928 90.7333 344.861 91.96C343.848 93.1333 342.888 94.28 341.981 95.4C341.075 96.52 340.381 97.4 339.901 98.04C339.741 98.2533 339.608 98.36 339.501 98.36C339.395 98.36 339.341 98.2267 339.341 97.96C339.341 97.5333 339.475 97.1333 339.741 96.76C340.755 95.48 341.875 94.04 343.101 92.44C344.381 90.84 345.528 89.3733 346.541 88.04C347.555 86.6533 348.195 85.7467 348.461 85.32C349.048 85.2133 349.901 85.0533 351.021 84.84C352.195 84.6267 352.995 84.3333 353.421 83.96C353.581 83.8 353.741 83.72 353.901 83.72C354.008 83.72 354.061 83.8267 354.061 84.04C354.115 84.2 354.061 84.3867 353.901 84.6C353.581 84.9733 353.021 85.88 352.221 87.32C351.421 88.76 350.568 90.36 349.661 92.12C348.808 93.8267 348.008 95.3733 347.261 96.76C346.515 98.2 345.875 99.5867 345.341 100.92C344.808 102.253 344.541 103.213 344.541 103.8C344.541 104.547 344.915 104.92 345.661 104.92C346.355 104.92 347.235 104.493 348.301 103.64C349.421 102.787 350.541 101.773 351.661 100.6C352.781 99.3733 353.768 98.2533 354.621 97.24C354.888 96.92 355.208 96.5467 355.581 96.12C356.008 95.64 356.275 95.3467 356.381 95.24C356.488 95.3467 356.541 95.5333 356.541 95.8C356.488 96.1733 356.355 96.5467 356.141 96.92C355.928 97.24 355.715 97.5333 355.501 97.8C354.381 99.1867 353.155 100.627 351.821 102.12C350.488 103.56 349.021 104.787 347.421 105.8C345.821 106.76 344.088 107.24 342.221 107.24Z" fill="#F3490E"/>
<path d="M215.31 115.74C212.743 115.74 210.03 115.337 207.17 114.53C204.383 113.797 201.89 112.55 199.69 110.79C197.563 109.03 196.133 106.683 195.4 103.75C195.327 103.383 195.253 102.98 195.18 102.54C195.18 102.1 195.18 101.66 195.18 101.22C195.18 98.9467 195.693 96.7467 196.72 94.62C197.747 92.4933 198.993 90.88 200.46 89.78H200.57C200.717 89.78 200.9 89.9633 201.12 90.33C201.413 90.6233 201.413 90.8433 201.12 90.99C200.387 91.7233 199.837 92.5667 199.47 93.52C199.177 94.4 199.03 95.3533 199.03 96.38C199.03 97.7733 199.25 99.2033 199.69 100.67C200.203 102.063 200.827 103.273 201.56 104.3C203.393 106.867 205.923 108.92 209.15 110.46C212.45 111.927 215.677 112.66 218.83 112.66C223.157 112.66 226.493 111.377 228.84 108.81C231.26 106.243 232.47 103.09 232.47 99.35C232.47 97.0767 232.03 94.8033 231.15 92.53C229.977 89.3767 228.4 86.2967 226.42 83.29C224.513 80.21 222.753 77.2033 221.14 74.27C219.747 71.63 219.05 68.9533 219.05 66.24C219.05 63.38 219.93 60.63 221.69 57.99C223.45 55.6433 225.76 53.7733 228.62 52.38C231.553 50.9133 234.523 50.18 237.53 50.18C239.583 50.18 241.563 50.5467 243.47 51.28C245.377 52.0133 247.1 53.2233 248.64 54.91C249.08 55.57 249.3 56.4133 249.3 57.44C249.3 58.9067 249.007 60.0433 248.42 60.85C247.76 61.8033 247.027 63.05 246.22 64.59C245.413 66.13 244.937 67.1933 244.79 67.78C244.643 67.8533 244.277 68 243.69 68.22C243.177 68.3667 242.847 68.33 242.7 68.11C242.993 67.5233 243.397 66.46 243.91 64.92C244.423 63.38 244.68 61.9867 244.68 60.74C244.68 59.9333 244.643 59.0533 244.57 58.1C244.57 57.0733 244.093 56.1933 243.14 55.46C242.26 54.6533 241.123 53.9567 239.73 53.37C238.337 52.7833 236.65 52.49 234.67 52.49C230.637 52.49 227.557 53.6633 225.43 56.01C223.303 58.3567 222.24 60.9233 222.24 63.71C222.24 65.1033 222.533 66.4967 223.12 67.89C224.22 70.53 225.76 73.0233 227.74 75.37C229.72 77.7167 231.663 80.1367 233.57 82.63C235.55 85.05 237.09 87.69 238.19 90.55C238.923 92.4567 239.29 94.4 239.29 96.38C239.29 99.24 238.557 101.843 237.09 104.19C235.697 106.537 233.79 108.59 231.37 110.35C229.023 112.037 226.457 113.357 223.67 114.31C220.883 115.263 218.097 115.74 215.31 115.74Z" fill="#F3490E"/>
<path d="M201.86 125.14C201.86 126.3 201.46 127.267 200.66 128.04C199.873 128.8 198.667 129.18 197.04 129.18H194.36V135H192.54V121.06H197.04C198.613 121.06 199.807 121.44 200.62 122.2C201.447 122.96 201.86 123.94 201.86 125.14ZM197.04 127.68C198.053 127.68 198.8 127.46 199.28 127.02C199.76 126.58 200 125.953 200 125.14C200 123.42 199.013 122.56 197.04 122.56H194.36V127.68H197.04ZM208.002 135.18C207.162 135.18 206.409 135.04 205.742 134.76C205.075 134.467 204.549 134.067 204.162 133.56C203.775 133.04 203.562 132.447 203.522 131.78H205.402C205.455 132.327 205.709 132.773 206.162 133.12C206.629 133.467 207.235 133.64 207.982 133.64C208.675 133.64 209.222 133.487 209.622 133.18C210.022 132.873 210.222 132.487 210.222 132.02C210.222 131.54 210.009 131.187 209.582 130.96C209.155 130.72 208.495 130.487 207.602 130.26C206.789 130.047 206.122 129.833 205.602 129.62C205.095 129.393 204.655 129.067 204.282 128.64C203.922 128.2 203.742 127.627 203.742 126.92C203.742 126.36 203.909 125.847 204.242 125.38C204.575 124.913 205.049 124.547 205.662 124.28C206.275 124 206.975 123.86 207.762 123.86C208.975 123.86 209.955 124.167 210.702 124.78C211.449 125.393 211.849 126.233 211.902 127.3H210.082C210.042 126.727 209.809 126.267 209.382 125.92C208.969 125.573 208.409 125.4 207.702 125.4C207.049 125.4 206.529 125.54 206.142 125.82C205.755 126.1 205.562 126.467 205.562 126.92C205.562 127.28 205.675 127.58 205.902 127.82C206.142 128.047 206.435 128.233 206.782 128.38C207.142 128.513 207.635 128.667 208.262 128.84C209.049 129.053 209.689 129.267 210.182 129.48C210.675 129.68 211.095 129.987 211.442 130.4C211.802 130.813 211.989 131.353 212.002 132.02C212.002 132.62 211.835 133.16 211.502 133.64C211.169 134.12 210.695 134.5 210.082 134.78C209.482 135.047 208.789 135.18 208.002 135.18ZM215.511 122.26C215.165 122.26 214.871 122.14 214.631 121.9C214.391 121.66 214.271 121.367 214.271 121.02C214.271 120.673 214.391 120.38 214.631 120.14C214.871 119.9 215.165 119.78 215.511 119.78C215.845 119.78 216.125 119.9 216.351 120.14C216.591 120.38 216.711 120.673 216.711 121.02C216.711 121.367 216.591 121.66 216.351 121.9C216.125 122.14 215.845 122.26 215.511 122.26ZM216.391 124.04V135H214.571V124.04H216.391ZM218.813 129.5C218.813 128.367 219.04 127.38 219.493 126.54C219.946 125.687 220.573 125.027 221.373 124.56C222.186 124.093 223.113 123.86 224.153 123.86C225.5 123.86 226.606 124.187 227.473 124.84C228.353 125.493 228.933 126.4 229.213 127.56H227.253C227.066 126.893 226.7 126.367 226.153 125.98C225.62 125.593 224.953 125.4 224.153 125.4C223.113 125.4 222.273 125.76 221.633 126.48C220.993 127.187 220.673 128.193 220.673 129.5C220.673 130.82 220.993 131.84 221.633 132.56C222.273 133.28 223.113 133.64 224.153 133.64C224.953 133.64 225.62 133.453 226.153 133.08C226.686 132.707 227.053 132.173 227.253 131.48H229.213C228.92 132.6 228.333 133.5 227.453 134.18C226.573 134.847 225.473 135.18 224.153 135.18C223.113 135.18 222.186 134.947 221.373 134.48C220.573 134.013 219.946 133.353 219.493 132.5C219.04 131.647 218.813 130.647 218.813 129.5ZM236.422 135.18C235.395 135.18 234.462 134.947 233.622 134.48C232.795 134.013 232.142 133.353 231.662 132.5C231.195 131.633 230.962 130.633 230.962 129.5C230.962 128.38 231.202 127.393 231.682 126.54C232.175 125.673 232.842 125.013 233.682 124.56C234.522 124.093 235.462 123.86 236.502 123.86C237.542 123.86 238.482 124.093 239.322 124.56C240.162 125.013 240.822 125.667 241.302 126.52C241.795 127.373 242.042 128.367 242.042 129.5C242.042 130.633 241.788 131.633 241.282 132.5C240.788 133.353 240.115 134.013 239.262 134.48C238.408 134.947 237.462 135.18 236.422 135.18ZM236.422 133.58C237.075 133.58 237.688 133.427 238.262 133.12C238.835 132.813 239.295 132.353 239.642 131.74C240.002 131.127 240.182 130.38 240.182 129.5C240.182 128.62 240.008 127.873 239.662 127.26C239.315 126.647 238.862 126.193 238.302 125.9C237.742 125.593 237.135 125.44 236.482 125.44C235.815 125.44 235.202 125.593 234.642 125.9C234.095 126.193 233.655 126.647 233.322 127.26C232.988 127.873 232.822 128.62 232.822 129.5C232.822 130.393 232.982 131.147 233.302 131.76C233.635 132.373 234.075 132.833 234.622 133.14C235.168 133.433 235.768 133.58 236.422 133.58ZM238.462 120.8L234.202 123.08V121.72L238.462 119.22V120.8ZM246.255 120.2V135H244.435V120.2H246.255ZM254.136 135.18C253.11 135.18 252.176 134.947 251.336 134.48C250.51 134.013 249.856 133.353 249.376 132.5C248.91 131.633 248.676 130.633 248.676 129.5C248.676 128.38 248.916 127.393 249.396 126.54C249.89 125.673 250.556 125.013 251.396 124.56C252.236 124.093 253.176 123.86 254.216 123.86C255.256 123.86 256.196 124.093 257.036 124.56C257.876 125.013 258.536 125.667 259.016 126.52C259.51 127.373 259.756 128.367 259.756 129.5C259.756 130.633 259.503 131.633 258.996 132.5C258.503 133.353 257.83 134.013 256.976 134.48C256.123 134.947 255.176 135.18 254.136 135.18ZM254.136 133.58C254.79 133.58 255.403 133.427 255.976 133.12C256.55 132.813 257.01 132.353 257.356 131.74C257.716 131.127 257.896 130.38 257.896 129.5C257.896 128.62 257.723 127.873 257.376 127.26C257.03 126.647 256.576 126.193 256.016 125.9C255.456 125.593 254.85 125.44 254.196 125.44C253.53 125.44 252.916 125.593 252.356 125.9C251.81 126.193 251.37 126.647 251.036 127.26C250.703 127.873 250.536 128.62 250.536 129.5C250.536 130.393 250.696 131.147 251.016 131.76C251.35 132.373 251.79 132.833 252.336 133.14C252.883 133.433 253.483 133.58 254.136 133.58ZM266.669 123.86C267.616 123.86 268.443 124.067 269.149 124.48C269.869 124.893 270.403 125.413 270.749 126.04V124.04H272.589V135.24C272.589 136.24 272.376 137.127 271.949 137.9C271.523 138.687 270.909 139.3 270.109 139.74C269.323 140.18 268.403 140.4 267.349 140.4C265.909 140.4 264.709 140.06 263.749 139.38C262.789 138.7 262.223 137.773 262.049 136.6H263.849C264.049 137.267 264.463 137.8 265.089 138.2C265.716 138.613 266.469 138.82 267.349 138.82C268.349 138.82 269.163 138.507 269.789 137.88C270.429 137.253 270.749 136.373 270.749 135.24V132.94C270.389 133.58 269.856 134.113 269.149 134.54C268.443 134.967 267.616 135.18 266.669 135.18C265.696 135.18 264.809 134.94 264.009 134.46C263.223 133.98 262.603 133.307 262.149 132.44C261.696 131.573 261.469 130.587 261.469 129.48C261.469 128.36 261.696 127.38 262.149 126.54C262.603 125.687 263.223 125.027 264.009 124.56C264.809 124.093 265.696 123.86 266.669 123.86ZM270.749 129.5C270.749 128.673 270.583 127.953 270.249 127.34C269.916 126.727 269.463 126.26 268.889 125.94C268.329 125.607 267.709 125.44 267.029 125.44C266.349 125.44 265.729 125.6 265.169 125.92C264.609 126.24 264.163 126.707 263.829 127.32C263.496 127.933 263.329 128.653 263.329 129.48C263.329 130.32 263.496 131.053 263.829 131.68C264.163 132.293 264.609 132.767 265.169 133.1C265.729 133.42 266.349 133.58 267.029 133.58C267.709 133.58 268.329 133.42 268.889 133.1C269.463 132.767 269.916 132.293 270.249 131.68C270.583 131.053 270.749 130.327 270.749 129.5ZM274.985 129.48C274.985 128.36 275.212 127.38 275.665 126.54C276.118 125.687 276.738 125.027 277.525 124.56C278.325 124.093 279.212 123.86 280.185 123.86C281.145 123.86 281.978 124.067 282.685 124.48C283.392 124.893 283.918 125.413 284.265 126.04V124.04H286.105V135H284.265V132.96C283.905 133.6 283.365 134.133 282.645 134.56C281.938 134.973 281.112 135.18 280.165 135.18C279.192 135.18 278.312 134.94 277.525 134.46C276.738 133.98 276.118 133.307 275.665 132.44C275.212 131.573 274.985 130.587 274.985 129.48ZM284.265 129.5C284.265 128.673 284.098 127.953 283.765 127.34C283.432 126.727 282.978 126.26 282.405 125.94C281.845 125.607 281.225 125.44 280.545 125.44C279.865 125.44 279.245 125.6 278.685 125.92C278.125 126.24 277.678 126.707 277.345 127.32C277.012 127.933 276.845 128.653 276.845 129.48C276.845 130.32 277.012 131.053 277.345 131.68C277.678 132.293 278.125 132.767 278.685 133.1C279.245 133.42 279.865 133.58 280.545 133.58C281.225 133.58 281.845 133.42 282.405 133.1C282.978 132.767 283.432 132.293 283.765 131.68C284.098 131.053 284.265 130.327 284.265 129.5ZM293.833 128.02C293.833 126.66 294.139 125.44 294.753 124.36C295.366 123.267 296.199 122.413 297.253 121.8C298.319 121.187 299.499 120.88 300.793 120.88C302.313 120.88 303.639 121.247 304.773 121.98C305.906 122.713 306.733 123.753 307.253 125.1H305.073C304.686 124.26 304.126 123.613 303.393 123.16C302.673 122.707 301.806 122.48 300.793 122.48C299.819 122.48 298.946 122.707 298.173 123.16C297.399 123.613 296.793 124.26 296.353 125.1C295.913 125.927 295.693 126.9 295.693 128.02C295.693 129.127 295.913 130.1 296.353 130.94C296.793 131.767 297.399 132.407 298.173 132.86C298.946 133.313 299.819 133.54 300.793 133.54C301.806 133.54 302.673 133.32 303.393 132.88C304.126 132.427 304.686 131.78 305.073 130.94H307.253C306.733 132.273 305.906 133.307 304.773 134.04C303.639 134.76 302.313 135.12 300.793 135.12C299.499 135.12 298.319 134.82 297.253 134.22C296.199 133.607 295.366 132.76 294.753 131.68C294.139 130.6 293.833 129.38 293.833 128.02ZM311.782 120.2V135H309.962V120.2H311.782ZM316.704 124.04V135H314.884V124.04H316.704ZM317.744 120.94L313.484 123.22V121.86L317.744 119.36V120.94ZM325.146 123.84C326.479 123.84 327.559 124.247 328.386 125.06C329.212 125.86 329.626 127.02 329.626 128.54V135H327.826V128.8C327.826 127.707 327.552 126.873 327.006 126.3C326.459 125.713 325.712 125.42 324.766 125.42C323.806 125.42 323.039 125.72 322.466 126.32C321.906 126.92 321.626 127.793 321.626 128.94V135H319.806V124.04H321.626V125.6C321.986 125.04 322.472 124.607 323.086 124.3C323.712 123.993 324.399 123.84 325.146 123.84ZM333.539 122.26C333.192 122.26 332.899 122.14 332.659 121.9C332.419 121.66 332.299 121.367 332.299 121.02C332.299 120.673 332.419 120.38 332.659 120.14C332.899 119.9 333.192 119.78 333.539 119.78C333.872 119.78 334.152 119.9 334.379 120.14C334.619 120.38 334.739 120.673 334.739 121.02C334.739 121.367 334.619 121.66 334.379 121.9C334.152 122.14 333.872 122.26 333.539 122.26ZM334.419 124.04V135H332.599V124.04H334.419ZM336.84 129.5C336.84 128.367 337.067 127.38 337.52 126.54C337.974 125.687 338.6 125.027 339.4 124.56C340.214 124.093 341.14 123.86 342.18 123.86C343.527 123.86 344.634 124.187 345.5 124.84C346.38 125.493 346.96 126.4 347.24 127.56H345.28C345.094 126.893 344.727 126.367 344.18 125.98C343.647 125.593 342.98 125.4 342.18 125.4C341.14 125.4 340.3 125.76 339.66 126.48C339.02 127.187 338.7 128.193 338.7 129.5C338.7 130.82 339.02 131.84 339.66 132.56C340.3 133.28 341.14 133.64 342.18 133.64C342.98 133.64 343.647 133.453 344.18 133.08C344.714 132.707 345.08 132.173 345.28 131.48H347.24C346.947 132.6 346.36 133.5 345.48 134.18C344.6 134.847 343.5 135.18 342.18 135.18C341.14 135.18 340.214 134.947 339.4 134.48C338.6 134.013 337.974 133.353 337.52 132.5C337.067 131.647 336.84 130.647 336.84 129.5ZM348.989 129.48C348.989 128.36 349.216 127.38 349.669 126.54C350.122 125.687 350.742 125.027 351.529 124.56C352.329 124.093 353.216 123.86 354.189 123.86C355.149 123.86 355.982 124.067 356.689 124.48C357.396 124.893 357.922 125.413 358.269 126.04V124.04H360.109V135H358.269V132.96C357.909 133.6 357.369 134.133 356.649 134.56C355.942 134.973 355.116 135.18 354.169 135.18C353.196 135.18 352.316 134.94 351.529 134.46C350.742 133.98 350.122 133.307 349.669 132.44C349.216 131.573 348.989 130.587 348.989 129.48ZM358.269 129.5C358.269 128.673 358.102 127.953 357.769 127.34C357.436 126.727 356.982 126.26 356.409 125.94C355.849 125.607 355.229 125.44 354.549 125.44C353.869 125.44 353.249 125.6 352.689 125.92C352.129 126.24 351.682 126.707 351.349 127.32C351.016 127.933 350.849 128.653 350.849 129.48C350.849 130.32 351.016 131.053 351.349 131.68C351.682 132.293 352.129 132.767 352.689 133.1C353.249 133.42 353.869 133.58 354.549 133.58C355.229 133.58 355.849 133.42 356.409 133.1C356.982 132.767 357.436 132.293 357.769 131.68C358.102 131.053 358.269 130.327 358.269 129.5Z" fill="#1F2238"/>
</svg>
